<svg width="50" height="50" viewBox="0 0 50 50" fill="none" xmlns="http://www.w3.org/2000/svg">
<path d="M29.1672 10.4167C29.1672 9.3116 28.7282 8.25179 27.9468 7.47039C27.1654 6.68899 26.1056 6.25 25.0005 6.25C23.8954 6.25 22.8356 6.68899 22.0542 7.47039C21.2728 8.25179 20.8338 9.3116 20.8338 10.4167M40.1255 20.2L43.0109 38.95C43.1022 39.5434 43.0641 40.1496 42.8993 40.7269C42.7345 41.3043 42.4469 41.8392 42.0561 42.2951C41.6654 42.7509 41.1807 43.117 40.6353 43.3681C40.09 43.6192 39.4967 43.7495 38.8963 43.75H11.1047C10.5039 43.7501 9.91022 43.6202 9.36434 43.3694C8.81845 43.1185 8.33327 42.7526 7.94205 42.2967C7.55083 41.8407 7.26284 41.3056 7.0978 40.7279C6.93277 40.1503 6.8946 39.5438 6.98591 38.95L9.87133 20.2C10.0227 19.2158 10.5215 18.3184 11.2774 17.6702C12.0334 17.0221 12.9964 16.666 13.9922 16.6667H36.0088C37.0042 16.6665 37.9668 17.0228 38.7223 17.6709C39.4778 18.319 39.9742 19.2162 40.1255 20.2Z" stroke="#FD6381" stroke-width="3" stroke-linecap="round" stroke-linejoin="round"/>
</svg>
