<svg width="22" height="22" viewBox="0 0 22 22" fill="none" xmlns="http://www.w3.org/2000/svg">
<path d="M11 7.33334V11.9167H15.5833V10.0833H12.8333V7.33334H11Z" fill="#3A4651" fill-opacity="0.8"/>
<path d="M19.5177 7.78891C19.1033 6.8086 18.5032 5.91773 17.7504 5.16541C16.6098 4.02451 15.1597 3.24305 13.5795 2.91775C12.4828 2.69478 11.3524 2.69478 10.2557 2.91775C8.67425 3.24144 7.22305 4.02346 6.08304 5.16633C5.33042 5.91811 4.73029 6.80834 4.31571 7.788C3.88678 8.8045 3.66609 9.89671 3.66671 11L3.66762 11.0229H1.83337L4.58337 14.6667L7.33337 11.0229H5.50096L5.50004 11C5.49757 9.72162 5.8792 8.47197 6.59546 7.41308C7.05816 6.73036 7.6464 6.14181 8.32887 5.67875C9.02327 5.20999 9.80274 4.88176 10.6233 4.71258C12.2903 4.36984 14.0251 4.70307 15.4465 5.63903C16.8679 6.57498 17.8595 8.03705 18.2032 9.70383C18.3765 10.558 18.3765 11.4383 18.2032 12.2925C18.0363 13.1138 17.7079 13.8937 17.237 14.5869C17.0079 14.927 16.7448 15.2469 16.4542 15.5366C15.868 16.1207 15.1758 16.5877 14.4146 16.9125C14.0267 17.0764 13.6235 17.2016 13.211 17.2865C12.3572 17.4597 11.4772 17.4597 10.6233 17.2865C9.80345 17.1174 9.02462 16.7895 8.33071 16.3212C7.98944 16.0911 7.67111 15.8286 7.38012 15.5375L6.08396 16.8337C7.63092 18.3806 9.72898 19.2498 11.9167 19.25C13.0194 19.2483 14.1108 19.0281 15.1278 18.6019C16.6017 17.9788 17.8626 16.9406 18.7569 15.6136C19.6775 14.2513 20.1686 12.6442 20.1667 11C20.1697 9.89677 19.9489 8.80438 19.5177 7.78891Z" fill="#3A4651" fill-opacity="0.8"/>
</svg>
